<svg xmlns="http://www.w3.org/2000/svg" xmlns:xlink="http://www.w3.org/1999/xlink" viewBox="0 0 209 209"><defs><style>.cls-1{fill:none;}.cls-2{fill:url(#linear-gradient);}.cls-3{fill:#fff;}</style><linearGradient id="linear-gradient" x1="164.52" y1="30.4" x2="47.89" y2="174.37" gradientUnits="userSpaceOnUse"><stop offset="0" stop-color="#a19fff"/><stop offset="1" stop-color="#3578f3"/></linearGradient></defs><g id="Layer_2" data-name="Layer 2"><g id="Layer_1-2" data-name="Layer 1"><rect class="cls-1" width="209" height="209"/><path id="Path_515" data-name="Path 515" class="cls-2" d="M104.5,1.7,15.6,53.1V155.9l88.9,51.4,88.9-51.4V53.2Z"/><g id="Cxym71.tif"><path class="cls-3" d="M107.6,28.5l2.2,1.5,13,9,21,14.8c3.4,2.3,6.9,4.6,10.2,7.1a43.3,43.3,0,0,1,12.5,14.4,52.1,52.1,0,0,1,5.4,15.2c.3,2.1.5,4.1.7,6.2.3,3.9.3,7.8.3,11.7a43.4,43.4,0,0,1-3.2,15.9c-1,2.5-2.2,5-3.3,7.5a1.2,1.2,0,0,1-.5.7,8.1,8.1,0,0,0,.1-1.6c.3-4.3-.8-8.5-2.2-12.6a53.6,53.6,0,0,0-5.2-10.1L145.7,87c-2.9-4.7-5.8-9.3-8.8-13.9-7.4-11.3-14.8-22.7-22.3-34l-6.7-9.8a2.5,2.5,0,0,0-.4-.7Z"/><path class="cls-3" d="M101.5,180.6l-1.7-1.2L83.2,167.9l-21-14.7-7.6-5.3a40.6,40.6,0,0,1-7.8-7.7,50.2,50.2,0,0,1-9.1-18.9,52.6,52.6,0,0,1-1.2-7.8l-.3-6.2c0-1.7-.1-3.5-.1-5.2a46.3,46.3,0,0,1,3.8-18.7l2.7-6a1.3,1.3,0,0,1,.5-.6v.6c-.5,5.8,1.1,11.1,3.4,16.4a96.7,96.7,0,0,0,5,8.9L66,126.3c3.1,5,6.3,10,9.5,15l17.3,26.3,8.6,12.7.2.2Z"/><path class="cls-3" d="M107.4,180.5l.6-1.1,11.6-19.2L133,138.1l17.8-29.6c.8-1.3.8-1.3,1.5,0,1.6,2.9,3.2,5.8,4.7,8.7a30.7,30.7,0,0,1,2.7,10.7,29.5,29.5,0,0,1-2.1,13.8,18.9,18.9,0,0,1-7.1,8.9l-26.2,18.2-16.2,11.4-.6.4Z"/><path class="cls-3" d="M101.7,28.5l-5.3,8.9L84.2,57.6,57.9,101.1a.5.5,0,0,1-.2.4c-.2.3-.3.2-.5-.1L56,99.3a76.2,76.2,0,0,1-4.6-9,31.7,31.7,0,0,1-2-14.3A27.1,27.1,0,0,1,53,64.2a16.1,16.1,0,0,1,4.3-4.7c2.3-1.8,4.8-3.5,7.2-5.1L84.7,40.2,97,31.7l4.6-3.3Z"/></g></g></g></svg>