<?xml version="1.0" encoding="UTF-8" standalone="no"?>
<!DOCTYPE svg PUBLIC "-//W3C//DTD SVG 20010904//EN" "http://www.w3.org/TR/2001/REC-SVG-20010904/DTD/svg10.dtd">
<svg version="1.0" xmlns="http://www.w3.org/2000/svg" width="640.000000pt" height="1280.000000pt" viewBox="0 0 640.000000 1280.000000" preserveAspectRatio="xMidYMid meet">
<metadata>
Created by potrace 1.15, written by Peter Selinger 2001-2017
</metadata>
<g transform="translate(0.000000,1280.000000) scale(0.100000,-0.100000)" fill="#000000" stroke="none">
<path d="M2964 12761 c-91 -44 -167 -98 -159 -111 3 -5 34 4 69 20 99 45 201 70 311 76 123 7 193 -6 364 -70 68 -26 126 -45 128 -42 14 14 -112 97 -210 137 -68 28 -74 29 -246 29 l-177 0 -80 -39z"/>
<path d="M3070 12599 c-78 -8 -144 -31 -266 -92 -85 -43 -93 -45 -106 -29 -28 32 -30 43 -12 63 16 18 16 19 -4 19 -41 0 -72 -18 -72 -43 0 -46 91 -106 343 -224 100 -46 186 -89 191 -94 6 -5 -1 -16 -16 -29 -41 -31 -83 -105 -182 -317 -144 -307 -146 -332 -12 -144 45 61 96 122 115 133 l34 22 39 -45 c54 -62 51 -94 -32 -389 -22 -80 -49 -185 -60 -235 -27 -129 -53 -633 -54 -1072 -1 -200 -4 -363 -7 -363 -3 0 -31 35 -61 78 -188 265 -374 617 -456 863 -111 336 -142 581 -112 872 12 120 38 224 100 399 l41 116 -21 61 c-27 82 -26 99 19 229 21 61 35 112 32 112 -7 0 -100 -55 -260 -152 -78 -48 -121 -82 -175 -141 -64 -71 -82 -84 -181 -132 -194 -95 -340 -133 -793 -210 -360 -62 -405 -75 -455 -135 -15 -17 -33 -54 -41 -83 -28 -95 -96 -369 -141 -572 -25 -110 -58 -257 -75 -327 -16 -70 -30 -135 -30 -146 0 -11 11 -36 26 -57 36 -53 27 -82 -39 -120 -64 -37 -71 -62 -28 -98 37 -31 38 -42 7 -98 -13 -24 -29 -78 -36 -119 -7 -41 -25 -140 -41 -220 -48 -237 -98 -554 -115 -725 -8 -88 -28 -260 -45 -383 -40 -308 -55 -547 -39 -621 27 -127 193 -382 409 -630 70 -80 294 -273 426 -368 131 -93 147 -111 155 -176 5 -39 -22 -287 -111 -987 -64 -514 -121 -943 -124 -952 -5 -13 -2 -18 10 -18 9 0 84 -23 166 -51 121 -42 149 -55 144 -68 -3 -8 -12 -81 -20 -161 -8 -80 -22 -208 -31 -285 -29 -228 -24 -450 14 -780 18 -154 44 -354 57 -445 13 -91 35 -291 50 -445 14 -154 37 -343 50 -420 14 -77 41 -230 60 -340 19 -110 50 -285 69 -390 68 -376 80 -500 77 -805 -1 -283 -17 -712 -27 -787 l-6 -43 710 0 711 0 6 52 c3 29 1 109 -6 178 -8 87 -13 511 -15 1410 l-2 1285 29 -200 c16 -110 73 -454 125 -765 266 -1568 293 -1736 300 -1845 l7 -115 648 0 c357 0 649 3 649 8 0 4 -7 72 -15 152 -26 267 -38 617 -25 752 6 67 13 125 15 128 2 4 9 202 15 441 12 489 4 426 120 929 84 364 104 461 136 670 13 91 35 237 49 325 13 88 31 234 40 325 8 91 22 219 30 285 8 66 19 190 25 275 6 85 17 222 25 304 8 82 15 172 15 201 l0 52 76 6 c82 7 183 31 223 52 21 11 25 19 23 51 -5 93 -122 1836 -127 1899 l-5 70 42 26 c24 15 126 77 228 139 296 179 636 411 740 503 l94 85 23 158 c16 117 22 207 22 344 1 252 -31 717 -65 945 -8 55 -24 208 -35 340 -25 299 -40 388 -84 498 -19 48 -35 92 -35 97 0 6 16 18 35 26 46 19 45 41 -5 99 -54 62 -53 91 6 178 51 78 52 76 -33 117 l-43 20 0 58 c0 32 -14 164 -31 293 -16 129 -41 329 -54 446 -27 239 -43 289 -117 363 -62 62 -99 76 -213 84 -279 19 -784 124 -992 207 -127 50 -181 87 -308 209 -123 117 -398 332 -490 382 -65 35 -135 60 -135 48 0 -5 40 -52 90 -105 49 -52 93 -107 96 -122 4 -14 2 -48 -5 -75 -21 -93 -16 -116 38 -172 42 -46 50 -60 60 -117 15 -89 14 -320 -3 -514 -38 -422 -111 -803 -215 -1112 -82 -247 -162 -400 -256 -493 l-52 -51 -6 388 c-4 213 -12 447 -17 520 -13 175 -67 489 -130 748 -60 253 -62 290 -19 331 l31 29 33 -38 c18 -21 66 -87 107 -147 40 -60 76 -110 80 -110 14 0 -55 178 -123 315 -38 77 -98 181 -134 230 -36 50 -65 92 -65 96 0 3 37 20 83 38 130 52 324 161 385 217 l56 50 -27 47 c-33 56 -54 62 -31 10 22 -54 22 -55 -8 -70 -25 -13 -34 -10 -116 31 -146 73 -194 86 -339 89 -70 1 -157 -1 -193 -4z"/>
</g>
</svg>