<?xml version="1.0" standalone="no"?>
<!DOCTYPE svg PUBLIC "-//W3C//DTD SVG 20010904//EN"
 "http://www.w3.org/TR/2001/REC-SVG-20010904/DTD/svg10.dtd">
<svg version="1.0" xmlns="http://www.w3.org/2000/svg"
 width="853.000000pt" height="1707.000000pt" viewBox="0 0 853.000000 1707.000000"
 preserveAspectRatio="xMidYMid meet">
<metadata>
Created by potrace 1.16, written by Peter Selinger 2001-2019
</metadata>
<g transform="translate(0.000000,1707.000000) scale(0.100000,-0.100000)"
fill="#000000" stroke="none">
<path d="M3957 17020 c-146 -73 -252 -150 -208 -150 6 0 53 16 104 36 174 68
263 86 437 88 178 1 197 -3 443 -91 209 -75 219 -63 43 47 -44 27 -114 64
-155 82 l-76 33 -245 2 -245 3 -98 -50z"/>
<path d="M4095 16800 c-99 -9 -170 -33 -326 -106 -74 -35 -143 -64 -152 -64
-10 0 -26 14 -37 32 -17 29 -18 35 -5 55 20 30 19 33 -10 33 -62 0 -99 -44
-75 -90 24 -44 144 -117 418 -251 155 -77 282 -142 282 -145 0 -3 -20 -29 -45
-57 -58 -67 -227 -398 -336 -661 -50 -119 -34 -112 79 39 106 140 156 197 190
217 l30 18 37 -41 c78 -86 80 -132 20 -360 -148 -564 -149 -571 -175 -1044 -9
-164 -29 -1006 -30 -1269 0 -107 2 -108 -104 43 -242 344 -488 819 -597 1153
-124 379 -170 692 -148 1015 16 242 49 390 152 681 l43 123 -23 67 c-34 101
-30 162 22 322 24 74 39 136 34 138 -9 4 -294 -164 -404 -239 -38 -26 -118
-94 -176 -152 -98 -97 -114 -108 -230 -165 -232 -112 -425 -168 -864 -246
-685 -123 -713 -131 -787 -207 -55 -57 -66 -87 -157 -454 -75 -306 -241 -1036
-241 -1061 0 -10 14 -41 30 -69 49 -83 38 -111 -68 -180 -60 -39 -64 -67 -17
-115 43 -44 43 -57 2 -155 -23 -54 -67 -265 -142 -680 -43 -239 -84 -520 -110
-751 -14 -126 -39 -335 -55 -465 -61 -488 -75 -766 -44 -870 49 -164 273 -506
507 -774 125 -142 345 -335 614 -539 85 -64 151 -122 165 -144 40 -65 34 -138
-122 -1377 -49 -390 -107 -843 -129 -1005 -21 -162 -37 -298 -34 -302 2 -5 12
-8 22 -8 22 0 330 -104 372 -126 28 -14 30 -19 25 -52 -4 -20 -22 -179 -42
-352 -69 -613 -62 -839 61 -1770 19 -146 51 -418 70 -605 51 -493 55 -520 175
-1200 123 -697 145 -834 161 -1020 20 -223 0 -1364 -27 -1528 l-6 -37 949 2
948 3 -1 145 c0 80 -6 635 -13 1235 -6 600 -10 1405 -9 1790 l3 700 28 -195
c29 -193 114 -707 386 -2330 158 -943 180 -1086 189 -1238 l7 -107 857 0 c471
0 860 3 863 7 4 4 0 87 -9 185 -43 474 -51 887 -23 1158 9 92 21 343 27 590
16 641 14 630 155 1247 119 518 147 661 204 1028 55 361 82 562 111 845 11
105 26 253 34 330 8 77 25 257 36 400 12 143 29 352 38 465 l17 205 75 6 c155
13 331 61 344 95 4 11 -151 2408 -169 2604 l-6 65 68 41 c716 434 1126 710
1345 908 l60 55 26 173 c25 162 26 195 26 538 0 426 -22 777 -74 1185 -11 83
-31 276 -45 430 -43 470 -58 558 -127 745 -44 117 -47 101 27 153 35 25 32 46
-20 113 -72 93 -72 124 1 241 59 96 57 109 -27 150 l-65 32 -12 138 c-7 76
-30 284 -52 463 -22 179 -49 402 -60 495 -24 198 -50 311 -84 370 -38 63 -137
150 -193 169 -26 9 -113 22 -193 30 -453 46 -1039 173 -1313 285 -125 51 -210
107 -341 227 -222 202 -536 452 -670 533 -68 41 -172 83 -193 79 -11 -2 16
-38 87 -118 56 -63 114 -132 128 -153 l25 -38 -16 -99 c-20 -123 -14 -145 57
-229 78 -91 81 -107 81 -471 -1 -321 -10 -446 -61 -800 -96 -676 -275 -1275
-471 -1572 -24 -37 -73 -97 -107 -135 l-64 -68 -6 260 c-15 637 -27 959 -41
1080 -22 187 -79 508 -131 740 -112 497 -113 511 -50 573 l37 37 34 -39 c19
-21 83 -108 142 -192 59 -85 111 -154 115 -154 11 0 -9 61 -63 192 -75 183
-172 367 -272 516 -48 73 -86 136 -83 141 4 5 41 24 84 41 207 86 495 254 571
333 l34 36 -23 38 c-52 86 -80 98 -49 21 l21 -53 -22 -17 c-12 -10 -32 -18
-45 -18 -12 0 -78 26 -146 59 -68 32 -147 66 -175 75 -100 33 -325 44 -509 26z"/>
</g>
</svg>
